name ./resultDataOpenSim/trcMotMarkerGrf/sub09/grf-05-03.mot
datacolumns 19
datarows 27
range 1.53200000 1.63600000
endheader

                time	     ground_force_vx	     ground_force_vy	     ground_force_vz	     ground_force_px	     ground_force_py	     ground_force_pz	   l_ground_force_vx	   l_ground_force_vy	   l_ground_force_vz	   l_ground_force_px	   l_ground_force_py	   l_ground_force_pz	     ground_torque_x	     ground_torque_y	     ground_torque_z	   l_ground_torque_x	   l_ground_torque_y	   l_ground_torque_z	
          1.53200000	        -22.06088934	        444.05289528	        -11.23267025	          1.04025592	          0.00000000	          0.15453736	          0.00000000	          0.00000000	          0.00000000	          0.00000000	          0.00000000	          0.00000000	          0.00000000	          1.56687113	          0.00000000	          0.00000000	          0.00000000	          0.00000000	
          1.53600000	        -19.93198098	        441.50069018	        -11.44393764	          1.04057287	          0.00000000	          0.15451431	          0.00000000	          0.00000000	          0.00000000	          0.00000000	          0.00000000	          0.00000000	          0.00000000	          1.50925233	          0.00000000	          0.00000000	          0.00000000	          0.00000000	
          1.54000000	        -19.06005533	        439.23966249	        -10.77087227	          1.04103119	          0.00000000	          0.15444980	          0.00000000	          0.00000000	          0.00000000	          0.00000000	          0.00000000	          0.00000000	          0.00000000	          1.60225502	          0.00000000	          0.00000000	          0.00000000	          0.00000000	
          1.54400000	        -19.17778157	        437.33266770	         -9.21062294	          1.04159294	          0.00000000	          0.15433654	          0.00000000	          0.00000000	          0.00000000	          0.00000000	          0.00000000	          0.00000000	          0.00000000	          1.83038985	          0.00000000	          0.00000000	          0.00000000	          0.00000000	
          1.54800000	        -19.78936757	        435.79933474	         -6.94237543	          1.04218481	          0.00000000	          0.15417313	          0.00000000	          0.00000000	          0.00000000	          0.00000000	          0.00000000	          0.00000000	          0.00000000	          2.15093165	          0.00000000	          0.00000000	          0.00000000	          0.00000000	
          1.55200000	        -20.31294732	        434.62646690	         -4.28981175	          1.04271011	          0.00000000	          0.15397094	          0.00000000	          0.00000000	          0.00000000	          0.00000000	          0.00000000	          0.00000000	          0.00000000	          2.50490534	          0.00000000	          0.00000000	          0.00000000	          0.00000000	
          1.55600000	        -20.24183165	        433.77134245	         -1.65786256	          1.04308568	          0.00000000	          0.15376218	          0.00000000	          0.00000000	          0.00000000	          0.00000000	          0.00000000	          0.00000000	          0.00000000	          2.83055960	          0.00000000	          0.00000000	          0.00000000	          0.00000000	
          1.56000000	        -19.27151297	        433.16651968	          0.53845316	          1.04328310	          0.00000000	          0.15359099	          0.00000000	          0.00000000	          0.00000000	          0.00000000	          0.00000000	          0.00000000	          0.00000000	          3.07589523	          0.00000000	          0.00000000	          0.00000000	          0.00000000	
          1.56400000	        -17.35297205	        432.74326620	          1.94222217	          1.04333149	          0.00000000	          0.15349653	          0.00000000	          0.00000000	          0.00000000	          0.00000000	          0.00000000	          0.00000000	          0.00000000	          3.20781182	          0.00000000	          0.00000000	          0.00000000	          0.00000000	
          1.56800000	        -14.67239110	        432.46819749	          2.31913670	          1.04327459	          0.00000000	          0.15350155	          0.00000000	          0.00000000	          0.00000000	          0.00000000	          0.00000000	          0.00000000	          0.00000000	          3.21680505	          0.00000000	          0.00000000	          0.00000000	          0.00000000	
          1.57200000	        -11.58228357	        432.36003503	          1.61030587	          1.04315567	          0.00000000	          0.15361032	          0.00000000	          0.00000000	          0.00000000	          0.00000000	          0.00000000	          0.00000000	          0.00000000	          3.11710540	          0.00000000	          0.00000000	          0.00000000	          0.00000000	
          1.57600000	         -8.50588481	        432.47542949	         -0.04457538	          1.04303528	          0.00000000	          0.15381645	          0.00000000	          0.00000000	          0.00000000	          0.00000000	          0.00000000	          0.00000000	          0.00000000	          2.94254786	          0.00000000	          0.00000000	          0.00000000	          0.00000000	
          1.58000000	         -5.82727404	        432.89539937	         -2.32907300	          1.04296672	          0.00000000	          0.15410061	          0.00000000	          0.00000000	          0.00000000	          0.00000000	          0.00000000	          0.00000000	          0.00000000	          2.73877461	          0.00000000	          0.00000000	          0.00000000	          0.00000000	
          1.58400000	         -3.79154149	        433.72124614	         -4.81711706	          1.04297992	          0.00000000	          0.15441881	          0.00000000	          0.00000000	          0.00000000	          0.00000000	          0.00000000	          0.00000000	          0.00000000	          2.55307281	          0.00000000	          0.00000000	          0.00000000	          0.00000000	
          1.58800000	         -2.44723106	        435.05594943	         -7.06431517	          1.04308125	          0.00000000	          0.15472506	          0.00000000	          0.00000000	          0.00000000	          0.00000000	          0.00000000	          0.00000000	          0.00000000	          2.42410213	          0.00000000	          0.00000000	          0.00000000	          0.00000000	
          1.59200000	         -1.64260908	        436.97697256	         -8.69447167	          1.04324976	          0.00000000	          0.15498864	          0.00000000	          0.00000000	          0.00000000	          0.00000000	          0.00000000	          0.00000000	          0.00000000	          2.37428057	          0.00000000	          0.00000000	          0.00000000	          0.00000000	
          1.59600000	         -1.07071639	        439.52703263	         -9.46347269	          1.04345195	          0.00000000	          0.15520077	          0.00000000	          0.00000000	          0.00000000	          0.00000000	          0.00000000	          0.00000000	          0.00000000	          2.40698900	          0.00000000	          0.00000000	          0.00000000	          0.00000000	
          1.60000000	         -0.35729033	        442.71854613	         -9.29521540	          1.04360804	          0.00000000	          0.15535930	          0.00000000	          0.00000000	          0.00000000	          0.00000000	          0.00000000	          0.00000000	          0.00000000	          2.50898450	          0.00000000	          0.00000000	          0.00000000	          0.00000000	
          1.60400000	          0.82465239	        446.53510995	         -8.29048453	          1.04363261	          0.00000000	          0.15547361	          0.00000000	          0.00000000	          0.00000000	          0.00000000	          0.00000000	          0.00000000	          0.00000000	          2.65633089	          0.00000000	          0.00000000	          0.00000000	          0.00000000	
          1.60800000	          2.65642689	        450.93252227	         -6.71132612	          1.04350536	          0.00000000	          0.15556470	          0.00000000	          0.00000000	          0.00000000	          0.00000000	          0.00000000	          0.00000000	          0.00000000	          2.82104361	          0.00000000	          0.00000000	          0.00000000	          0.00000000	
          1.61200000	          5.13750080	        455.84226945	         -4.93918613	          1.04324550	          0.00000000	          0.15564993	          0.00000000	          0.00000000	          0.00000000	          0.00000000	          0.00000000	          0.00000000	          0.00000000	          2.97623989	          0.00000000	          0.00000000	          0.00000000	          0.00000000	
          1.61600000	          8.11606812	        461.18379057	         -3.40675913	          1.04290610	          0.00000000	          0.15575593	          0.00000000	          0.00000000	          0.00000000	          0.00000000	          0.00000000	          0.00000000	          0.00000000	          3.09929579	          0.00000000	          0.00000000	          0.00000000	          0.00000000	
          1.62000000	         11.35678721	        466.89261550	         -2.51903441	          1.04253050	          0.00000000	          0.15590470	          0.00000000	          0.00000000	          0.00000000	          0.00000000	          0.00000000	          0.00000000	          0.00000000	          3.17383333	          0.00000000	          0.00000000	          0.00000000	          0.00000000	
          1.62400000	         14.61782554	        472.93940647	         -2.57979483	          1.04214836	          0.00000000	          0.15610628	          0.00000000	          0.00000000	          0.00000000	          0.00000000	          0.00000000	          0.00000000	          0.00000000	          3.19133076	          0.00000000	          0.00000000	          0.00000000	          0.00000000	
          1.62800000	         17.71991187	        479.31515455	         -3.72992396	          1.04178497	          0.00000000	          0.15636871	          0.00000000	          0.00000000	          0.00000000	          0.00000000	          0.00000000	          0.00000000	          0.00000000	          3.15217722	          0.00000000	          0.00000000	          0.00000000	          0.00000000	
          1.63200000	         20.59232413	        486.00510644	         -5.91307389	          1.04145972	          0.00000000	          0.15669963	          0.00000000	          0.00000000	          0.00000000	          0.00000000	          0.00000000	          0.00000000	          0.00000000	          3.06529633	          0.00000000	          0.00000000	          0.00000000	          0.00000000	
          1.63600000	         23.28561563	        492.98520393	         -8.88814457	          1.04117394	          0.00000000	          0.15709581	          0.00000000	          0.00000000	          0.00000000	          0.00000000	          0.00000000	          0.00000000	          0.00000000	          2.94583783	          0.00000000	          0.00000000	          0.00000000	          0.00000000	
